<svg xmlns="http://www.w3.org/2000/svg" width="30" height="30" viewBox="0 0 30 30">
    <g fill="none" fill-rule="evenodd">
        <g>
            <g>
                <g transform="translate(-200 -1064) translate(0 1027) translate(71 37)">
                    <g>
                        <path fill="#ffffff" fill-rule="nonzero" d="M15 0c8.284 0 15 6.716 15 15 0 8.284-6.716 15-15 15-8.284 0-15-6.716-15-15C0 6.716 6.716 0 15 0zm1.517 6.875c-1.035 0-1.865.308-2.49.923-.625.615-.938 1.48-.938 2.593V12.5h-2.256v2.666h2.256v6.709h2.754v-6.709h2.139l.351-2.666h-2.49v-1.846c0-.43.078-.742.234-.937.196-.235.557-.352 1.084-.352h1.407V6.992c-.528-.078-1.211-.117-2.051-.117z" transform="translate(129)"/>
                    </g>
                </g>
            </g>
        </g>
    </g>
</svg>
