<svg xmlns="http://www.w3.org/2000/svg" xmlns:xlink="http://www.w3.org/1999/xlink" width="30" height="30" viewBox="0 1 30 29">
    <defs>
        <path id="1nglv32vpa" d="M15.03.655c7.906 0 14.315 6.409 14.315 14.313 0 7.906-6.409 14.314-14.314 14.314-7.906 0-14.313-6.408-14.313-14.314C.718 7.064 7.125.655 15.03.655zm4.415 6.284h-8.89C8.592 6.94 7 8.531 7 10.495v8.889c0 1.964 1.592 3.555 3.555 3.555h8.89c1.964 0 3.555-1.591 3.555-3.555v-8.89c0-1.963-1.591-3.555-3.555-3.555zM15 10.495c2.455 0 4.445 1.99 4.445 4.445 0 2.454-1.99 4.444-4.445 4.444-2.454 0-4.445-1.99-4.445-4.444 0-2.456 1.99-4.445 4.445-4.445zm0 1.444c-1.654 0-3 1.346-3 3 0 1.655 1.346 3 3 3s3-1.345 3-3c0-1.654-1.346-3-3-3zm4.73-3.253c.613 0 1.11.497 1.11 1.11 0 .615-.497 1.112-1.11 1.112-.615 0-1.112-.497-1.112-1.111s.497-1.111 1.111-1.111z"/>
    </defs>
    <g fill="none" fill-rule="evenodd">
        <g>
            <g>
                <g>
                    <g>
                        <g transform="translate(-312 -1064) translate(0 1027) translate(71 37) translate(241 .5) translate(0 .06)">
                            <use fill="#ffffff" xlink:href="#1nglv32vpa"/>
                        </g>
                    </g>
                </g>
            </g>
        </g>
    </g>
</svg>
