<svg xmlns="http://www.w3.org/2000/svg" width="30" height="30" viewBox="0 0 30 30">
    <g fill="none" fill-rule="evenodd">
        <g>
            <g>
                <g transform="translate(-368 -1064) translate(0 1027) translate(71 37)">
                    <g>
                        <path fill="#ffffff" fill-rule="nonzero" d="M15 0c8.284 0 15 6.716 15 15 0 8.284-6.716 15-15 15-8.284 0-15-6.716-15-15C0 6.716 6.716 0 15 0zm-3.202 11.813H9.231V20.5h2.567v-8.687zm7.112-.313c-1.242 0-2.08.704-2.426 1.408h-.03v-1.194H14V20.5h2.57v-4.347c0-1.163.203-2.265 1.531-2.265 1.3 0 1.329 1.316 1.329 2.326v4.255H22v-4.806c0-2.357-.491-4.163-3.09-4.163zm-8.41-4c-.808 0-1.471.699-1.5 1.58 0 .88.663 1.579 1.5 1.579s1.5-.73 1.5-1.58c0-.88-.692-1.579-1.5-1.579z" transform="translate(297)"/>
                    </g>
                </g>
            </g>
        </g>
    </g>
</svg>
