<?xml version="1.0" encoding="utf-8"?>
<!-- Generator: Adobe Illustrator 18.1.1, SVG Export Plug-In . SVG Version: 6.00 Build 0)  -->
<svg version="1.1" xmlns="http://www.w3.org/2000/svg" xmlns:xlink="http://www.w3.org/1999/xlink" x="0px" y="0px"
	 viewBox="0 0 180 31.7" xml:space="preserve">
<g id="logos">
	<path fill="#69AC1D" d="M23.5,10.1c-2.7,0-6.2,1.5-6.2,7.1c0,4.8,2.2,7.1,5.8,7.1c3.5,0,6.2-2.3,6.2-7.5
		C29.4,10.7,25.5,10.1,23.5,10.1z M23.3,22c-2.4,0-2.8-2.7-2.8-5.1c0-2.6,0.9-4.4,2.8-4.4c2,0,2.7,1.8,2.7,4.8
		C26.1,20.1,25.3,22,23.3,22z"/>
	<path fill="#69AC1D" d="M40.6,20.6l1.2,2.1c-1,0.9-2.7,1.5-4.6,1.5c-3.9,0-6.2-2.5-6.2-7c0-5.4,3.3-7.2,6.2-7.2
		c1.7,0,3.7,0.7,4.9,2.5l-2,1.7c-0.7-0.9-1.7-1.7-2.9-1.7c-1.8,0-3,1.5-3,4.5c0,2.8,1,4.6,3.4,4.6C38.6,21.8,39.5,21.4,40.6,20.6"/>
	<path fill="#69AC1D" d="M54.6,21.4V11.1c-1.9-0.7-3.9-0.9-4.7-0.9c-4.6,0-6.9,3-6.9,7.7c0,3.8,1.5,6.5,5.2,6.5
		c1.5,0,2.8-0.6,3.7-1.8l0.1,0l0.2,1.4h2.7L54.6,21.4z M51.4,19.7c0,1.1-1,2.3-2.6,2.3c-2.2,0-2.8-2.1-2.8-4.3
		c0-2.9,0.9-5.3,3.4-5.3c0.8,0,1.6,0.2,2,0.3V19.7z"/>
	<path fill="#69AC1D" d="M63.5,10.1c-1.3,0-2.4,0.4-3.1,1.1V5.4h-3.2v17.8c1.1,0.6,3.4,1.1,5.3,1.1c4,0,6.3-2.6,6.3-7.8
		C68.8,12.4,66.8,10.1,63.5,10.1z M62.6,22.1c-0.9,0-1.8-0.3-2.3-0.5v-7.1c0-1.2,1.1-2,2.3-2c2.5,0,3,2.5,3,4.6
		C65.7,20.7,64.5,22.1,62.6,22.1z"/>
	<path fill="#69AC1D" d="M81.7,10.5v11.2l0.2,2.2h-2.7l-0.2-1.6h-0.1c-0.9,1.3-2.3,1.9-3.9,1.9c-2.9,0-4.4-1.5-4.4-4.7v-9.1h3.2V19
		c0,1.6,0.3,2.8,2.1,2.8c1.4,0,2.6-1.3,2.6-2.6v-8.8H81.7z"/>
	<path fill="#69AC1D" d="M87.6,5.4v14.1c0,1.7,0.3,2.3,1.4,2.3c0.5,0,1.1-0.2,1.7-0.4l0.7,2.1c-0.7,0.5-2,0.8-3.2,0.8
		c-3.6,0-3.8-2.1-3.8-4.1V5.4H87.6z"/>
	<path fill="#69AC1D" d="M103.5,21.4V11.1c-1.9-0.7-3.9-0.9-4.7-0.9c-4.6,0-6.9,3-6.9,7.7c0,3.8,1.5,6.5,5.2,6.5
		c1.5,0,2.8-0.6,3.7-1.8l0.1,0l0.2,1.4h2.7L103.5,21.4z M100.3,19.7c0,1.1-1,2.3-2.6,2.3c-2.2,0-2.8-2.1-2.8-4.3
		c0-2.9,0.9-5.3,3.4-5.3c0.8,0,1.6,0.2,2,0.3V19.7z"/>
	<path fill="#69AC1D" d="M109.8,23.9h-3.2V12.7l-0.2-2.2h2.6l0.3,1.9c0.6-1.5,1.9-2.3,3.2-2.3c0.8,0,1.5,0.2,2.1,0.5l-0.6,2.7
		c-0.6-0.3-1.2-0.5-1.9-0.5c-1.4,0-2.4,1.1-2.4,2.7V23.9z"/>
	<path fill="#69AC1D" d="M124.4,10.5v8.2c0,1.5-0.9,2.3-2.5,2.3c-2.1,0-2.3-1.3-2.3-3v-7.6h-3.2v8.1c0,2.7,1.4,4,3.5,4.3
		c-1.5,1-2.8,2.6-2.8,4.6c0,2.1,1.4,3.5,4.3,3.5c3.3,0,5.3-1.9,5.8-5.1c0.1-0.9,0.2-2.7,0.2-3.7V10.5H124.4z M124.4,24.6
		c0,2.4-0.6,4.1-2.5,4.1c-1.2,0-1.8-0.7-1.8-1.7c0-2.2,1.9-3.5,4.3-4.7V24.6z"/>
	<path fill="#69AC1D" d="M131.7,20.7c1.2,0,1.9,0.7,1.9,1.8c0,1-0.7,1.8-1.8,1.8c-1.3,0-1.9-0.7-1.9-1.8
		C129.9,21.5,130.6,20.7,131.7,20.7"/>
	<path fill="#69AC1D" d="M145,20.6l1.2,2.1c-1,0.9-2.7,1.5-4.6,1.5c-3.9,0-6.2-2.5-6.2-7c0-5.4,3.3-7.2,6.2-7.2
		c1.7,0,3.7,0.7,4.9,2.5l-2,1.7c-0.7-0.9-1.7-1.7-2.9-1.7c-1.8,0-3,1.5-3,4.5c0,2.8,1,4.6,3.4,4.6C143,21.8,143.9,21.4,145,20.6"/>
	<path fill="#69AC1D" d="M153.9,10.1c-2.7,0-6.2,1.5-6.2,7.1c0,4.8,2.2,7.1,5.8,7.1c3.5,0,6.2-2.3,6.2-7.5
		C159.7,10.7,155.8,10.1,153.9,10.1z M153.7,22c-2.4,0-2.8-2.7-2.8-5.1c0-2.6,0.9-4.4,2.8-4.4c2,0,2.7,1.8,2.7,4.8
		C156.4,20.1,155.6,22,153.7,22z"/>
	<path fill="#69AC1D" d="M161.6,23.9V12.8l-0.2-2.3h2.6l0.3,1.7c0.9-1.3,2.2-2.1,3.9-2.1c1.7,0,3,0.6,3.7,2.1
		c0.8-1.4,2.2-2.1,3.9-2.1c2.7,0,4.2,1.6,4.2,4.7v9.1h-3.2v-8.5c0-1.6-0.3-2.9-2-2.9c-1.5,0-2.4,1.2-2.4,2.6v8.7h-3.2v-8.5
		c0-1.4-0.2-2.9-2-2.9c-1.5,0-2.4,1.3-2.4,2.7v8.6H161.6z"/>
	<polygon fill="none" points="17.3,0 17.3,0 17.3,0 	"/>

	<linearGradient id="SVGID_1_" gradientUnits="userSpaceOnUse" x1="-298.6064" y1="323.2777" x2="-298.1412" y2="323.2777" gradientTransform="matrix(12.3872 20.8103 20.8103 -12.3872 -3026.4517 10230.5195)">
		<stop  offset="0" style="stop-color:#69AC1D"/>
		<stop  offset="0.3023" style="stop-color:#67AA1D"/>
		<stop  offset="0.4747" style="stop-color:#60A11D"/>
		<stop  offset="0.6144" style="stop-color:#54931C"/>
		<stop  offset="0.7367" style="stop-color:#42801B"/>
		<stop  offset="0.8475" style="stop-color:#2C661A"/>
		<stop  offset="0.9486" style="stop-color:#114719"/>
		<stop  offset="1" style="stop-color:#003418"/>
	</linearGradient>
	<polygon fill="url(#SVGID_1_)" points="3.8,10.4 3.8,10.4 3.4,9.6 -0.1,11.4 6.7,23.9 8.4,19 	"/>

		<linearGradient id="SVGID_2_" gradientUnits="userSpaceOnUse" x1="-302.2332" y1="317.4092" x2="-301.768" y2="317.4092" gradientTransform="matrix(30.7139 0 0 -30.7139 9289.4424 9760.8281)">
		<stop  offset="0" style="stop-color:#B3D6A2"/>
		<stop  offset="1" style="stop-color:#69AC1D"/>
	</linearGradient>
	<path fill="url(#SVGID_2_)" d="M17.8,0c-1.4,2-3.4,5.2-5.1,8.5c-3,6.2-5.4,13.4-5.5,13.7l-0.6,1.7h4.4l0.3-0.8
		c0.1-0.3,2.5-7.5,5.5-13.7c1.3-2.7,2.8-5.2,4.1-7.1L17.8,0L17.8,0z"/>
</g>
</svg>