<svg xmlns="http://www.w3.org/2000/svg" width="30" height="30" viewBox="0 0 30 30">
    <g fill="none" fill-rule="evenodd">
        <g>
            <g>
                <g transform="translate(-256 -1064) translate(0 1027) translate(71 37)">
                    <g>
                        <path fill="#ffffff" fill-rule="nonzero" d="M15 0c8.284 0 15 6.716 15 15 0 8.284-6.716 15-15 15-8.284 0-15-6.716-15-15C0 6.716 6.716 0 15 0zm2.871 8.281c-.547 0-1.055.137-1.523.41-.47.274-.84.65-1.114 1.128-.273.479-.41.992-.41 1.538 0 .235.02.47.059.704-1.25-.059-2.427-.372-3.53-.938-1.104-.566-2.037-1.328-2.798-2.285-.293.488-.44 1-.44 1.538 0 .537.127 1.03.381 1.48.254.449.586.82.996 1.113-.488-.02-.947-.156-1.377-.41v.058c0 .723.235 1.367.703 1.934.47.566 1.055.928 1.758 1.084-.273.058-.547.088-.82.088-.176 0-.361-.01-.557-.03.196.606.552 1.109 1.07 1.51.517.4 1.118.6 1.801.6-1.133.879-2.412 1.318-3.838 1.318-.273 0-.517-.01-.732-.03 1.426.919 2.998 1.378 4.717 1.378 1.797 0 3.388-.46 4.775-1.377 1.27-.82 2.256-1.924 2.96-3.31.683-1.31 1.025-2.667 1.025-4.073 0-.176-.01-.303-.03-.38.606-.45 1.123-.987 1.553-1.612-.586.254-1.172.42-1.758.498.664-.41 1.113-.977 1.348-1.7-.606.352-1.26.596-1.963.733-.293-.293-.63-.527-1.01-.703-.382-.176-.797-.264-1.246-.264z" transform="translate(185)"/>
                    </g>
                </g>
            </g>
        </g>
    </g>
</svg>
